<?xml version="1.0" encoding="UTF-8"?>
<svg id="Ebene_2" data-name="Ebene 2" xmlns="http://www.w3.org/2000/svg" viewBox="0 0 188.38 148.46">
  <defs>
    <style>
      .cls-1 {
        fill: #d5ff9a;
      }

      .cls-2 {
        fill: #61c497;
      }
    </style>
  </defs>
  <g id="Ebene_1-2" data-name="Ebene 1">
    <g>
      <path class="cls-2" d="M186.52,89.62l-1.73-.98c-1.35-.76-2.79-1.22-4.28-1.36-.18-.02-.36-.03-.53-.03,1.9-3.17,3.74-6.73,5.14-10.49,2.59-6.94,4.64-14.61,2.12-23.59-1.3-4.62-3.65-8.88-6.99-12.64l-2.24-2.52-2.86,1.78-9.64,6-3.26,2.03-1.76-4.5-9.77-24.92-1.59-4.06-3.91,1.93c-6.26,3.1-11.33,6.98-15.07,11.53-.44.53-.88,1.06-1.32,1.59-.75.9-1.52,1.82-2.28,2.77-1.56,1.96-4.3,5.41-5.89,6.44-.64-1.37-1.24-4.15-1.53-5.46-.17-.75-.32-1.47-.48-2.13-.17-.76-1.54-6.64-4.93-12.68-5.16-9.2-15.45-15.81-17.46-17.04l-2.12-1.3-2.1,1.33c-1.95,1.23-11.94,7.85-17.07,17-3.4,6.07-4.76,11.92-4.93,12.69-.16.65-.32,1.38-.48,2.13-.29,1.31-.9,4.09-1.53,5.46-1.59-1.03-4.33-4.48-5.89-6.44-.73-.92-1.48-1.81-2.2-2.67-.47-.56-.93-1.12-1.4-1.68-3.84-4.69-9.26-8.58-16.1-11.55l-3.88-1.69-1.46,3.97-3.75,10.18-7.01,19.03-2.41-1.5-10.39-6.46-2.93-1.82-2.23,2.63c-3.22,3.79-5.54,7.99-6.9,12.48-4.08,13.44,1.33,26.08,6.48,34.21-2.79.15-4.33,1.29-5.15,2.27l-.09.11-1.21,1.44.34,1.85c.65,3.53,1.73,6.94,3.21,10.14,5.92,12.74,16.99,19.35,23.06,22.15l.27.12.29.08c1.98.58,3.43.77,4.59.93,1.42.19,2.35.31,4.28,1.16,3.37,1.49,5.61,3.52,7.77,5.48,3.01,2.72,6.11,5.54,11.6,6.63,1.92.41,3.75.61,5.59.61,2.39,0,4.4-.34,6.17-.64,1.52-.26,2.83-.48,4.23-.48.94,0,1.87.1,2.86.31,2.15.44,3.33,1.53,5.07,3.18,3.63,3.81,8.18,5.83,13.18,5.83.14,0,.27,0,.41,0,.1,0,.21,0,.31,0,6.87,0,10.41-3.28,12.99-5.68,1.81-1.68,3.02-2.8,5.26-3.33,1.11-.2,2.12-.3,3.1-.3,1.46,0,2.71.22,4.14.48,1.66.3,3.55.64,5.9.64,1.83,0,3.7-.2,5.72-.62,5.46-1.07,8.58-3.89,11.59-6.62,2.17-1.96,4.4-3.99,7.77-5.48,1.93-.85,2.86-.98,4.28-1.16,1.18-.16,2.64-.35,4.66-.95,4.04-1.19,26.15-11.74,26.89-29.77.06-1.35-.01-2.72-.2-4.07l-.27-1.96ZM165.98,78.85c-1.12,6.32-3.46,12.42-6.94,18.12l-1.05,1.71-5.58,9.14,10.21-3.25.61-.19c-2.62,2.25-6.35,4.79-10.69,6.53l-.04.02-.04.02c-2.05.87-3.65,1.2-5.36,1.56-2.67.56-5.7,1.19-9.55,3.75h-.02s-.02.03-.02.03c-3.27,2.23-4.82,4.21-5.95,5.66-.98,1.25-1.43,1.83-2.65,2.34-.63.27-1.18.39-1.73.39-1.35,0-2.91-.77-4.7-1.67-2.45-1.22-5.5-2.74-9.26-2.74-.41,0-.81.02-1.22.05-2.28.2-3.42,1.22-4.34,2.04-.65.58-1.75,1.56-4.35,3.4-3.26,2.3-7.71,5.45-9.04,5.65h-.03c-2.41,0-5.62-2.82-8.19-5.09l-.29-.26c-.77-.68-1.35-1.25-1.91-1.81-1.53-1.52-3.12-3.08-6.08-3.74-.81-.18-1.66-.27-2.51-.27-2.66,0-5.35.82-8.98,2.73-1.73.87-3.37,1.68-4.78,1.68-.57,0-1.12-.12-1.73-.38-1.22-.52-1.67-1.09-2.65-2.34-1.13-1.45-2.68-3.43-5.94-5.66-3.61-2.47-6.23-3.03-9.01-3.63l-.14-.03-.17-.03c-5.53-.78-12.13-4.76-16.3-8.18l.49.16,10.21,3.24-5.58-9.14-1.05-1.71c-3.48-5.7-5.81-11.79-6.94-18.11-1.45-8.15-1.02-11.51-.6-12.82l4.69,3.23,6.68,4.59,5.33,3.67.9-6.41c3.61-25.78,8.67-27.31,9.23-27.4.07-.01.14-.02.21-.02,2.1,0,5.9,3.54,8.68,6.13,4.17,3.88,8.48,7.89,13.35,7.89,1.12,0,2.21-.21,3.24-.64,2.44-1,3.56-2.72,4.75-4.55l.2-.31c3.76-5.74,7.01-10.7,9.87-14.15,3.52-4.24,5.01-4.37,5.16-4.37h0c.19,0,1.9.14,5.81,4.95,2.95,3.64,6.07,8.58,9.08,13.36l.25.39c1.17,1.87,2.28,3.64,4.76,4.67,1.03.43,2.11.64,3.23.64,4.83,0,9.13-4,13.29-7.87,2.79-2.6,6.62-6.16,8.74-6.16.08,0,.15,0,.22.02.57.09,5.65,1.63,9.24,27.4l.89,6.41,5.33-3.67,6.68-4.59,4.69-3.23c.42,1.32.85,4.68-.6,12.82Z"/>
      <path class="cls-1" d="M94.15,4.71c1.03.63,11.25,7,16.06,15.58,3.31,5.9,4.52,11.63,4.52,11.63.16.64.31,1.34.47,2.08.73,3.33,1.73,7.89,3.93,8.68.35.13.69.19,1.06.19,2.93,0,6.26-4.17,9.47-8.21,1.16-1.46,2.38-2.87,3.56-4.31,2.49-3.03,6.63-6.96,13.76-10.49,4.53,11.56,9.07,23.13,13.6,34.69l1.09-1.67c5.19-3.23,10.39-6.46,15.58-9.69,1.87,2.1,4.66,5.81,6.13,11.07,2.32,8.27.13,15.35-2.02,21.12-2.42,6.48-6.23,12.46-10.41,18.12l2.22-.74c1.46-.49,2.78-.86,3.94-1.11,1.38-.29,2.07-.39,2.61-.39.14,0,.28,0,.41.02,1.19.11,2.11.53,2.69.86.18,1.29.2,2.42.16,3.36-.67,16.29-22.36,25.61-24.03,26.1-1.72.51-2.96.67-4.05.82-1.57.21-2.92.39-5.37,1.47-3.96,1.75-6.55,4.1-8.84,6.17-2.84,2.58-5.3,4.8-9.71,5.67-1.75.36-3.36.54-4.91.54-1.99,0-3.62-.29-5.19-.57-1.56-.28-3.03-.54-4.85-.54-1.26,0-2.55.13-3.92.39-3.33.76-5.19,2.48-7.16,4.31-2.45,2.27-4.97,4.61-10.27,4.61-.11,0-.22,0-.33,0-.13,0-.26,0-.39,0-3.9,0-7.49-1.62-10.35-4.66-1.95-1.84-3.79-3.59-7.07-4.26-1.26-.27-2.47-.4-3.69-.4-1.74,0-3.27.26-4.9.53-1.69.29-3.45.58-5.5.58-1.57,0-3.14-.17-4.79-.53-4.42-.87-6.87-3.09-9.72-5.67-2.29-2.08-4.88-4.43-8.84-6.17-2.45-1.08-3.8-1.26-5.37-1.47-1.08-.14-2.31-.31-3.99-.8-4.56-2.11-15.4-7.92-21.11-20.2-1.52-3.27-2.4-6.41-2.91-9.17l.09-.11c.33-.39,1.06-.86,2.69-.86,1.69,0,4.03.5,6.96,1.48l2.22.74c-1.45-1.52-18.36-19.73-12.43-39.25.9-2.97,2.62-6.93,6.13-11.05,5.19,3.23,10.39,6.46,15.58,9.69l1.09,1.67c4.25-11.54,8.5-23.08,12.76-34.62,7.77,3.37,12.08,7.34,14.6,10.42,1.18,1.44,2.4,2.85,3.56,4.31,3.21,4.04,6.54,8.21,9.47,8.21.36,0,.71-.06,1.06-.19,2.21-.79,3.21-5.35,3.93-8.68.16-.74.32-1.44.47-2.08,0,0,1.21-5.71,4.53-11.64,4.79-8.55,14.58-14.86,15.71-15.58M71.14,53.72c-6.71,0-14.82-14.02-22.03-14.02-.28,0-.56.02-.84.07-4.21.67-9.2,6.77-12.57,30.79-4.45-3.06-8.9-6.13-13.35-9.19-.01,0-.02,0-.03,0-.49,0-1.18.07-1.86.44-4.46,2.4-2.39,14.02-1.73,17.75,1.21,6.82,3.72,13.38,7.46,19.5l1.05,1.71-1.91-.61c-2.65-.84-4.54-1.25-5.78-1.25s-1.61.42-1.84.81c-.24.42-.25.94-.02,1.6,1.5,4.49,13.95,13.89,23.55,15.24h.03s.03,0,.03,0c2.59.56,4.63,1,7.59,3.02,2.75,1.88,3.97,3.44,5.05,4.82,1.11,1.42,2.07,2.64,4.25,3.56,1.11.47,2.18.69,3.29.69,2.37,0,4.54-1.08,6.61-2.13,3.03-1.6,5.17-2.29,7.15-2.29.56,0,1.11.06,1.64.18,1.83.41,2.75,1.31,4.13,2.68.57.57,1.23,1.21,2.08,1.97l.29.26c3.24,2.85,6.91,6.08,10.86,6.08h.09c2.17-.03,5.52-2.33,11.27-6.39,2.79-1.97,3.99-3.04,4.71-3.69.75-.67,1.07-.95,2.02-1.03.29-.03.58-.04.87-.04,2.82,0,5.18,1.18,7.47,2.32,2.16,1.08,4.19,2.09,6.49,2.09,1.1,0,2.17-.23,3.29-.7,2.18-.92,3.14-2.14,4.25-3.56,1.08-1.38,2.3-2.94,5.06-4.82,3.21-2.13,5.61-2.63,8.15-3.16,1.82-.38,3.69-.77,6.1-1.79,8.71-3.48,15.85-10.21,16.94-13.32.23-.64.22-1.16-.02-1.59-.22-.39-.57-.81-1.84-.81h0c-1.24,0-3.13.41-5.78,1.25l-1.91.61,1.05-1.71c3.74-6.13,6.25-12.69,7.46-19.5.66-3.72,2.73-15.35-1.73-17.74-.68-.37-1.37-.44-1.86-.44-.01,0-.02,0-.04,0l-13.36,9.19c-3.35-23.98-8.34-30.12-12.57-30.79-.28-.05-.56-.07-.85-.07-7.23,0-15.37,14.03-22.02,14.03-.58,0-1.15-.11-1.7-.34-1.4-.58-1.99-1.66-3.16-3.5-6.15-9.76-12.72-20.18-18.27-20.18,0,0-.01,0-.02,0-5.06.02-10.75,8.72-18.36,20.33-1.15,1.75-1.75,2.78-3.13,3.35-.56.23-1.13.34-1.72.34M94.12,0l-2.1,1.33c-1.95,1.23-11.94,7.85-17.07,17-3.4,6.07-4.76,11.92-4.93,12.69-.16.65-.32,1.38-.48,2.13-.29,1.31-.9,4.09-1.53,5.46-1.59-1.03-4.33-4.48-5.89-6.44-.73-.92-1.48-1.81-2.2-2.67-.47-.56-.93-1.12-1.4-1.68-3.84-4.69-9.26-8.58-16.1-11.55l-3.88-1.69-1.46,3.97-3.75,10.18-7.01,19.03-2.41-1.5-10.39-6.46-2.93-1.82-2.23,2.63c-3.22,3.79-5.54,7.99-6.9,12.48-4.08,13.44,1.33,26.08,6.48,34.21-2.79.15-4.33,1.29-5.15,2.27l-.09.11-1.21,1.44.34,1.85c.65,3.53,1.73,6.94,3.21,10.14,5.92,12.74,16.99,19.35,23.06,22.15l.27.12.29.08c1.98.58,3.43.77,4.59.93,1.42.19,2.35.31,4.28,1.16,3.37,1.49,5.61,3.52,7.77,5.48,3.01,2.72,6.11,5.54,11.6,6.63,1.92.41,3.75.61,5.6.61,2.39,0,4.4-.34,6.17-.64,1.52-.26,2.83-.48,4.23-.48.94,0,1.87.1,2.86.31,2.15.44,3.33,1.53,5.07,3.18,3.63,3.81,8.18,5.83,13.18,5.83.14,0,.27,0,.41,0,.1,0,.21,0,.31,0,6.87,0,10.41-3.28,12.99-5.68,1.81-1.68,3.02-2.8,5.26-3.33,1.11-.2,2.12-.3,3.1-.3,1.46,0,2.71.22,4.14.48,1.66.3,3.55.64,5.9.64,1.83,0,3.7-.2,5.72-.62,5.46-1.07,8.58-3.89,11.59-6.62,2.17-1.96,4.4-3.99,7.77-5.48,1.93-.85,2.86-.98,4.28-1.16,1.18-.16,2.64-.35,4.66-.95,4.04-1.19,26.15-11.74,26.89-29.77.06-1.35-.01-2.72-.2-4.07l-.27-1.96-1.73-.98c-1.35-.76-2.79-1.22-4.28-1.36-.18-.02-.36-.03-.53-.03,1.9-3.17,3.74-6.73,5.14-10.49,2.59-6.94,4.64-14.61,2.12-23.59-1.3-4.62-3.65-8.88-6.99-12.64l-2.24-2.52-2.86,1.78-9.64,6-3.26,2.03-1.76-4.5-9.77-24.92-1.59-4.06-3.91,1.93c-6.26,3.1-11.33,6.98-15.07,11.53-.44.53-.88,1.06-1.32,1.59-.75.9-1.52,1.82-2.28,2.77-1.56,1.96-4.3,5.41-5.89,6.44-.64-1.37-1.24-4.15-1.53-5.46-.17-.75-.32-1.47-.48-2.13-.17-.76-1.54-6.64-4.93-12.68-5.16-9.2-15.45-15.81-17.46-17.04L94.12,0h0ZM71.14,57.72c1.12,0,2.21-.21,3.24-.64,2.44-1,3.56-2.72,4.75-4.55l.2-.31c3.76-5.74,7.01-10.7,9.87-14.15,3.52-4.24,5.01-4.37,5.16-4.37h0c.19,0,1.9.14,5.81,4.95,2.95,3.64,6.07,8.58,9.08,13.36l.25.39c1.17,1.87,2.28,3.64,4.76,4.67,1.03.43,2.11.64,3.23.64,4.83,0,9.13-4,13.29-7.87,2.79-2.6,6.62-6.16,8.74-6.16.08,0,.15,0,.22.02.57.09,5.65,1.63,9.24,27.4l.89,6.41,5.33-3.67,6.68-4.59,4.69-3.23c.42,1.32.85,4.68-.6,12.82-1.12,6.32-3.46,12.42-6.94,18.12l-1.05,1.71-5.58,9.14,10.21-3.25.61-.19c-2.62,2.25-6.35,4.79-10.69,6.53l-.04.02-.04.02c-2.05.87-3.65,1.2-5.36,1.56-2.67.56-5.7,1.19-9.55,3.75h-.02s-.02.03-.02.03c-3.27,2.23-4.82,4.21-5.95,5.66-.98,1.25-1.43,1.83-2.65,2.34-.63.27-1.18.39-1.73.39-1.35,0-2.91-.77-4.7-1.67-2.45-1.22-5.5-2.74-9.26-2.74-.41,0-.81.02-1.22.05-2.28.2-3.42,1.22-4.34,2.04-.65.58-1.75,1.56-4.35,3.4-3.26,2.3-7.71,5.45-9.04,5.65h-.03c-2.41,0-5.62-2.82-8.19-5.09l-.29-.26c-.77-.68-1.35-1.25-1.91-1.81-1.53-1.52-3.12-3.08-6.08-3.74-.81-.18-1.66-.27-2.51-.27-2.66,0-5.35.82-8.98,2.73-1.73.87-3.37,1.68-4.78,1.68-.57,0-1.12-.12-1.73-.38-1.22-.52-1.67-1.09-2.65-2.34-1.13-1.45-2.68-3.43-5.94-5.66-3.61-2.47-6.23-3.03-9.01-3.63l-.14-.03-.17-.03c-5.53-.78-12.13-4.76-16.3-8.18l.49.16,10.21,3.24-5.58-9.14-1.05-1.71c-3.48-5.7-5.81-11.79-6.94-18.11-1.45-8.15-1.02-11.51-.6-12.82l4.69,3.23,6.68,4.59,5.33,3.67.9-6.41c3.61-25.78,8.67-27.31,9.23-27.4.07-.01.14-.02.21-.02,2.1,0,5.9,3.54,8.68,6.13,4.17,3.88,8.48,7.89,13.35,7.89h0Z"/>
    </g>
  </g>
</svg>