<?xml version="1.0" encoding="UTF-8"?>
<svg id="Ebene_2" data-name="Ebene 2" xmlns="http://www.w3.org/2000/svg" viewBox="0 0 146.59 135.2">
  <defs>
    <style>
      .cls-1 {
        fill: #d5ff9a;
      }

      .cls-2 {
        fill: #61c497;
      }
    </style>
  </defs>
  <g id="Ebene_1-2" data-name="Ebene 1">
    <g>
      <path class="cls-2" d="M138.48,20.21l-10.72,7.72-20.43,14.72-14.23-17.87L76.48,3.93l-3.13-3.93-3.13,3.93-16.61,20.85-14.22,17.86-7.08-5.14L8.14,19.93,0,14.02l1.85,9.89c3.14,16.73,7.41,33.41,12.71,49.58,5.66,17.29,12.6,34.34,20.61,50.68l.52,1.05,1,.61c6,3.63,20.94,9.38,35.47,9.38.39,0,.79,0,1.18-.01.39,0,.78.01,1.17.01,14.49,0,29.45-5.75,35.47-9.38l1.01-.61.52-1.06c8.03-16.33,14.96-33.38,20.61-50.68,5.26-16.08,9.5-32.66,12.61-49.29l1.84-9.82-8.11,5.84Z"/>
      <path class="cls-1" d="M138.48,20.21l-10.72,7.72-20.43,14.72-14.23-17.87L76.48,3.93l-3.13-3.93-3.13,3.93-16.61,20.85-14.22,17.86-7.08-5.14L8.14,19.93,0,14.02l1.85,9.89c3.14,16.73,7.41,33.41,12.71,49.58,5.66,17.29,12.6,34.34,20.61,50.68l.52,1.05,1,.61c6,3.63,20.94,9.38,35.47,9.38.39,0,.79,0,1.18-.01.39,0,.78.01,1.17.01,14.49,0,29.45-5.75,35.47-9.38l1.01-.61.52-1.06c8.03-16.33,14.96-33.38,20.61-50.68,5.26-16.08,9.5-32.66,12.61-49.29l1.84-9.82-8.11,5.84ZM40.13,48.12c11.07-13.9,22.15-27.8,33.22-41.7,11.07,13.9,22.15,27.8,33.22,41.7,9.37-6.75,18.74-13.49,28.1-20.24l-28.37,35.13-32.95-27.94-32.95,27.94L11.96,27.65c9.39,6.82,18.78,13.64,28.17,20.47ZM107.93,122.4c-5.07,3.05-19.27,8.8-33.41,8.8-.39,0-.78,0-1.17-.01-.39,0-.79.01-1.18.01-14.12,0-28.36-5.76-33.4-8.8-2.64-5.38-5.3-11.11-7.93-17.2,7.12,3.35,17.86,7.03,29.37,8.66.54,6.78,6.22,12.14,13.14,12.14s12.61-5.36,13.14-12.15c11.52-1.63,22.26-5.31,29.38-8.65-2.63,6.09-5.3,11.84-7.94,17.21ZM64.16,112.8c0-5.07,4.12-9.19,9.19-9.19s9.19,4.12,9.19,9.19-4.12,9.19-9.19,9.19-9.19-4.12-9.19-9.19ZM128.34,72.24c-3.16,9.68-6.55,18.75-10.04,27.19-5.34,3.09-17.99,8.34-32.1,10.4-1.35-5.85-6.59-10.23-12.85-10.23s-11.5,4.39-12.85,10.24c-14.11-2.05-26.76-7.31-32.09-10.41-3.48-8.44-6.88-17.51-10.05-27.19-5.28-16.13-9.04-31.22-11.75-44.86l33.25,41.34,33.49-28.4,33.49,28.39,33.16-41.06c-2.69,13.56-6.42,28.56-11.66,44.59Z"/>
    </g>
  </g>
</svg>