<?xml version="1.0" encoding="UTF-8"?>
<svg id="Ebene_2" data-name="Ebene 2" xmlns="http://www.w3.org/2000/svg" viewBox="0 0 117.8 117.8">
  <defs>
    <style>
      .cls-1 {
        fill: #d5ff9a;
      }

      .cls-2 {
        fill: #61c497;
      }
    </style>
  </defs>
  <g id="Ebene_1-2" data-name="Ebene 1">
    <g>
      <path class="cls-2" d="M114.12,58.9c0-2.19.79-4.89,1.63-7.74,1.53-5.19,3.26-11.07.89-16.66-2.38-5.62-7.74-8.37-12.47-10.79-2.5-1.28-4.86-2.49-6.22-3.86-1.37-1.37-2.58-3.73-3.86-6.22-2.43-4.73-5.18-10.1-10.79-12.47C81.48.39,79.45,0,77.27,0,73.62,0,70.07,1.04,66.64,2.05c-2.85.84-5.55,1.63-7.74,1.63s-4.89-.79-7.74-1.63C47.73,1.04,44.18,0,40.54,0c-2.18,0-4.21.39-6.03,1.16-5.62,2.38-8.37,7.74-10.79,12.47-1.28,2.5-2.49,4.86-3.86,6.22-1.37,1.37-3.73,2.58-6.22,3.86-4.73,2.43-10.1,5.18-12.47,10.79-2.36,5.59-.63,11.47.89,16.66.84,2.85,1.63,5.55,1.63,7.74s-.79,4.89-1.63,7.74c-1.53,5.19-3.26,11.07-.89,16.66,2.38,5.62,7.74,8.37,12.47,10.79,2.5,1.28,4.86,2.49,6.22,3.86,1.37,1.37,2.58,3.73,3.86,6.22,2.43,4.73,5.18,10.1,10.79,12.47,1.82.77,3.85,1.16,6.03,1.16,3.65,0,7.2-1.04,10.63-2.05,2.85-.84,5.55-1.63,7.74-1.63s4.89.79,7.74,1.63c3.43,1.01,6.98,2.05,10.63,2.05,2.21,0,4.18-.38,6.03-1.16,5.62-2.38,8.37-7.74,10.79-12.47,1.28-2.5,2.49-4.86,3.86-6.22,1.37-1.37,3.73-2.58,6.22-3.86,4.73-2.43,10.1-5.18,12.47-10.79,2.36-5.59.63-11.47-.89-16.66-.84-2.85-1.63-5.55-1.63-7.74Z"/>
      <g>
        <path class="cls-1" d="M114.12,58.9c0-2.19.79-4.89,1.63-7.74,1.53-5.19,3.26-11.07.89-16.66-2.38-5.62-7.74-8.37-12.47-10.79-2.5-1.28-4.86-2.49-6.22-3.86-1.37-1.37-2.58-3.73-3.86-6.22-2.43-4.73-5.18-10.1-10.79-12.47C81.48.39,79.45,0,77.27,0,73.62,0,70.07,1.04,66.64,2.05c-2.85.84-5.55,1.63-7.74,1.63s-4.89-.79-7.74-1.63C47.73,1.04,44.18,0,40.54,0c-2.18,0-4.21.39-6.03,1.16-5.62,2.38-8.37,7.74-10.79,12.47-1.28,2.5-2.49,4.86-3.86,6.22-1.37,1.37-3.73,2.58-6.22,3.86-4.73,2.43-10.1,5.18-12.47,10.79-2.36,5.59-.63,11.47.89,16.66.84,2.85,1.63,5.55,1.63,7.74s-.79,4.89-1.63,7.74c-1.53,5.19-3.26,11.07-.89,16.66,2.38,5.62,7.74,8.37,12.47,10.79,2.5,1.28,4.86,2.49,6.22,3.86,1.37,1.37,2.58,3.73,3.86,6.22,2.43,4.73,5.18,10.1,10.79,12.47,1.82.77,3.85,1.16,6.03,1.16,3.65,0,7.2-1.04,10.63-2.05,2.85-.84,5.55-1.63,7.74-1.63s4.89.79,7.74,1.63c3.43,1.01,6.98,2.05,10.63,2.05,2.21,0,4.18-.38,6.03-1.16,5.62-2.38,8.37-7.74,10.79-12.47,1.28-2.5,2.49-4.86,3.86-6.22,1.37-1.37,3.73-2.58,6.22-3.86,4.73-2.43,10.1-5.18,12.47-10.79,2.36-5.59.63-11.47-.89-16.66-.84-2.85-1.63-5.55-1.63-7.74ZM112.96,81.74c-2.97,7.02-13.21,8.74-17.84,13.38-4.63,4.63-6.36,14.87-13.38,17.84-1.43.6-2.93.84-4.47.84-6.04,0-12.73-3.69-18.37-3.69s-12.33,3.69-18.36,3.69c-1.54,0-3.04-.24-4.47-.84-7.02-2.97-8.74-13.21-13.38-17.84-4.63-4.63-14.87-6.36-17.84-13.38-2.97-7.02,2.84-15.76,2.84-22.84s-5.81-15.82-2.84-22.84c2.97-7.02,13.21-8.74,17.84-13.38,4.63-4.63,6.36-14.87,13.38-17.84,1.43-.6,2.93-.84,4.47-.84,6.04,0,12.73,3.69,18.36,3.69s12.33-3.69,18.37-3.69c1.54,0,3.04.24,4.47.84,7.02,2.97,8.74,13.21,13.38,17.84,4.63,4.63,14.87,6.36,17.84,13.38,2.97,7.02-2.84,15.76-2.84,22.84s5.81,15.82,2.84,22.84Z"/>
        <path class="cls-1" d="M104.21,39.76c-1.86-4.41-6.07-6.56-9.79-8.47-1.96-1.01-3.81-1.95-4.88-3.03s-2.02-2.92-3.03-4.88c-1.9-3.71-4.06-7.92-8.47-9.79-1.43-.6-3.02-.91-4.73-.91-2.86,0-5.65.82-8.34,1.61-2.24.66-4.35,1.28-6.07,1.28s-3.83-.62-6.07-1.28c-2.69-.79-5.48-1.61-8.34-1.61-1.71,0-3.3.31-4.73.91-4.41,1.86-6.56,6.07-8.47,9.79-1.01,1.96-1.95,3.81-3.03,4.88-1.07,1.07-2.92,2.02-4.88,3.03-3.71,1.9-7.92,4.06-9.79,8.47-1.85,4.39-.5,9,.7,13.07.66,2.24,1.28,4.35,1.28,6.07s-.62,3.83-1.28,6.07c-1.2,4.07-2.56,8.69-.7,13.07,1.86,4.41,6.07,6.56,9.79,8.47,1.96,1.01,3.81,1.95,4.88,3.03,1.07,1.07,2.02,2.92,3.03,4.88,1.9,3.71,4.06,7.92,8.47,9.79,1.43.6,3.02.91,4.73.91,2.86,0,5.65-.82,8.34-1.61,2.24-.66,4.35-1.28,6.07-1.28s3.83.62,6.07,1.28c2.69.79,5.48,1.61,8.34,1.61,1.73,0,3.28-.3,4.73-.91,4.41-1.86,6.56-6.07,8.47-9.79,1.01-1.96,1.95-3.81,3.03-4.88,1.07-1.07,2.92-2.02,4.88-3.03,3.71-1.9,7.92-4.06,9.79-8.47,1.85-4.39.5-9-.7-13.07-.66-2.24-1.28-4.35-1.28-6.07s.62-3.83,1.28-6.07c1.2-4.07,2.56-8.69.7-13.07ZM101.32,76.82c-2.33,5.51-10.36,6.86-14,10.5s-4.99,11.67-10.5,14c-1.12.47-2.3.66-3.51.66-4.74,0-9.99-2.89-14.41-2.89s-9.67,2.89-14.41,2.89c-1.21,0-2.39-.19-3.51-.66-5.51-2.33-6.86-10.36-10.5-14s-11.67-4.99-14-10.5c-2.33-5.51,2.23-12.37,2.23-17.92s-4.56-12.41-2.23-17.92c2.33-5.51,10.36-6.86,14-10.5s4.99-11.67,10.5-14c1.12-.47,2.3-.66,3.51-.66,4.74,0,9.99,2.89,14.41,2.89s9.67-2.89,14.41-2.89c1.21,0,2.39.19,3.51.66,5.51,2.33,6.86,10.36,10.5,14s11.67,4.99,14,10.5c2.33,5.51-2.23,12.37-2.23,17.92s4.56,12.41,2.23,17.92Z"/>
        <path class="cls-1" d="M92.94,44.52c-1.4-3.31-4.56-4.93-7.35-6.36-1.47-.76-2.86-1.47-3.67-2.27s-1.52-2.2-2.27-3.67c-1.43-2.79-3.05-5.95-6.36-7.35-1.07-.45-2.27-.68-3.55-.68-2.15,0-4.24.62-6.26,1.21-1.68.49-3.27.96-4.56.96s-2.88-.47-4.56-.96c-2.02-.6-4.11-1.21-6.26-1.21-1.28,0-2.48.23-3.55.68-3.31,1.4-4.93,4.56-6.36,7.35-.76,1.47-1.47,2.86-2.27,3.67-.81.81-2.2,1.52-3.67,2.27-2.79,1.43-5.95,3.05-7.35,6.36-1.39,3.29-.37,6.76.53,9.82.49,1.68.96,3.27.96,4.56s-.47,2.88-.96,4.56c-.9,3.06-1.92,6.52-.53,9.82,1.4,3.31,4.56,4.93,7.35,6.36,1.47.76,2.86,1.47,3.67,2.27.8.81,1.52,2.2,2.27,3.67,1.43,2.79,3.05,5.95,6.36,7.35,1.07.45,2.27.68,3.55.68,2.15,0,4.24-.62,6.26-1.21,1.68-.49,3.27-.96,4.56-.96s2.88.47,4.56.96c2.02.6,4.11,1.21,6.26,1.21,1.3,0,2.47-.22,3.55-.68,3.31-1.4,4.93-4.56,6.36-7.35.76-1.47,1.47-2.86,2.27-3.67.8-.8,2.2-1.52,3.67-2.27,2.79-1.43,5.95-3.05,7.35-6.36,1.39-3.29.37-6.76-.53-9.82-.49-1.68-.96-3.27-.96-4.56s.47-2.88.96-4.56c.9-3.06,1.92-6.52.53-9.82ZM90.77,72.36c-1.75,4.14-7.79,5.15-10.52,7.89-2.73,2.73-3.75,8.77-7.89,10.52-.84.36-1.73.5-2.64.5-3.56,0-7.51-2.17-10.83-2.17s-7.27,2.17-10.83,2.17c-.91,0-1.79-.14-2.64-.5-4.14-1.75-5.15-7.79-7.89-10.52s-8.77-3.75-10.52-7.89c-1.75-4.14,1.67-9.29,1.67-13.46s-3.42-9.32-1.67-13.46c1.75-4.14,7.79-5.15,10.52-7.89,2.73-2.73,3.75-8.77,7.89-10.52.84-.36,1.73-.5,2.64-.5,3.56,0,7.51,2.17,10.83,2.17s7.27-2.17,10.83-2.17c.91,0,1.79.14,2.64.5,4.14,1.75,5.15,7.79,7.89,10.52,2.73,2.73,8.77,3.75,10.52,7.89,1.75,4.14-1.67,9.29-1.67,13.46s3.42,9.32,1.67,13.46Z"/>
        <path class="cls-1" d="M84.34,48.16c-1.05-2.47-3.41-3.69-5.49-4.75-1.1-.56-2.14-1.1-2.74-1.7-.6-.6-1.13-1.64-1.7-2.74-1.07-2.08-2.28-4.45-4.75-5.49-.8-.34-1.7-.51-2.66-.51-1.61,0-3.17.46-4.68.9-1.26.37-2.44.72-3.41.72s-2.15-.35-3.41-.72c-1.51-.44-3.07-.9-4.68-.9-.96,0-1.85.17-2.66.51-2.47,1.05-3.69,3.41-4.75,5.49-.56,1.1-1.1,2.14-1.7,2.74-.6.6-1.64,1.13-2.74,1.7-2.08,1.07-4.45,2.28-5.49,4.75-1.04,2.46-.28,5.05.39,7.34.37,1.26.72,2.44.72,3.41s-.35,2.15-.72,3.41c-.67,2.29-1.43,4.88-.39,7.34,1.05,2.47,3.41,3.69,5.49,4.75,1.1.56,2.14,1.1,2.74,1.7.6.6,1.13,1.64,1.7,2.74,1.07,2.08,2.28,4.45,4.75,5.49.8.34,1.7.51,2.66.51,1.61,0,3.17-.46,4.68-.9,1.26-.37,2.44-.72,3.41-.72s2.15.35,3.41.72c1.51.44,3.07.9,4.68.9.97,0,1.84-.17,2.66-.51,2.47-1.05,3.69-3.41,4.75-5.49.56-1.1,1.1-2.14,1.7-2.74.6-.6,1.64-1.13,2.74-1.7,2.08-1.07,4.45-2.28,5.49-4.75,1.04-2.46.28-5.05-.39-7.34-.37-1.26-.72-2.44-.72-3.41s.35-2.15.72-3.41c.67-2.29,1.43-4.88.39-7.34ZM82.71,68.96c-1.31,3.09-5.82,3.85-7.86,5.89s-2.8,6.55-5.89,7.86c-.63.27-1.29.37-1.97.37-2.66,0-5.61-1.62-8.09-1.62s-5.43,1.62-8.09,1.62c-.68,0-1.34-.11-1.97-.37-3.09-1.31-3.85-5.82-5.89-7.86s-6.55-2.8-7.86-5.89c-1.31-3.09,1.25-6.94,1.25-10.06s-2.56-6.97-1.25-10.06c1.31-3.09,5.82-3.85,7.86-5.89,2.04-2.04,2.8-6.55,5.89-7.86.63-.27,1.29-.37,1.97-.37,2.66,0,5.61,1.62,8.09,1.62s5.43-1.62,8.09-1.62c.68,0,1.34.11,1.97.37,3.09,1.31,3.85,5.82,5.89,7.86,2.04,2.04,6.55,2.8,7.86,5.89,1.31,3.09-1.25,6.94-1.25,10.06s2.56,6.97,1.25,10.06Z"/>
      </g>
    </g>
  </g>
</svg>