<?xml version="1.0" encoding="UTF-8"?>
<svg id="Ebene_2" data-name="Ebene 2" xmlns="http://www.w3.org/2000/svg" viewBox="0 0 117.8 117.8">
  <defs>
    <style>
      .cls-1 {
        fill: #d5ff9a;
      }

      .cls-2 {
        fill: #61c497;
      }
    </style>
  </defs>
  <g id="Ebene_1-2" data-name="Ebene 1">
    <g>
      <path class="cls-2" d="M114.12,58.9c0-2.19.79-4.89,1.63-7.74,1.53-5.19,3.26-11.07.89-16.66-2.38-5.62-7.74-8.37-12.47-10.79-2.5-1.28-4.86-2.49-6.22-3.86-1.37-1.37-2.58-3.73-3.86-6.22-2.43-4.73-5.18-10.1-10.79-12.47C81.48.39,79.45,0,77.27,0,73.62,0,70.07,1.04,66.64,2.05c-2.85.84-5.55,1.63-7.74,1.63s-4.89-.79-7.74-1.63C47.73,1.04,44.18,0,40.54,0c-2.18,0-4.21.39-6.03,1.16-5.62,2.38-8.37,7.74-10.79,12.47-1.28,2.5-2.49,4.86-3.86,6.22-1.37,1.37-3.73,2.58-6.22,3.86-4.73,2.43-10.1,5.18-12.47,10.79-2.36,5.59-.63,11.47.89,16.66.84,2.85,1.63,5.55,1.63,7.74s-.79,4.89-1.63,7.74c-1.53,5.19-3.26,11.07-.89,16.66,2.38,5.62,7.74,8.37,12.47,10.79,2.5,1.28,4.86,2.49,6.22,3.86,1.37,1.37,2.58,3.73,3.86,6.22,2.43,4.73,5.18,10.1,10.79,12.47,1.82.77,3.85,1.16,6.03,1.16,3.65,0,7.2-1.04,10.63-2.05,2.85-.84,5.55-1.63,7.74-1.63s4.89.79,7.74,1.63c3.43,1.01,6.98,2.05,10.63,2.05,2.21,0,4.18-.38,6.03-1.16,5.62-2.38,8.37-7.74,10.79-12.47,1.28-2.5,2.49-4.86,3.86-6.22,1.37-1.37,3.73-2.58,6.22-3.86,4.73-2.43,10.1-5.18,12.47-10.79,2.36-5.59.63-11.47-.89-16.66-.84-2.85-1.63-5.55-1.63-7.74Z"/>
      <path class="cls-1" d="M77.27,4c1.54,0,3.04.24,4.47.84,7.02,2.97,8.74,13.21,13.38,17.84,4.63,4.63,14.87,6.36,17.84,13.38,2.97,7.02-2.84,15.76-2.84,22.84s5.81,15.82,2.84,22.84c-2.97,7.02-13.21,8.74-17.84,13.38-4.63,4.63-6.36,14.87-13.38,17.84-1.43.6-2.93.84-4.47.84-6.04,0-12.73-3.69-18.37-3.69s-12.33,3.69-18.36,3.69c-1.54,0-3.04-.24-4.47-.84-7.02-2.97-8.74-13.21-13.38-17.84-4.63-4.63-14.87-6.36-17.84-13.38-2.97-7.02,2.84-15.76,2.84-22.84s-5.81-15.82-2.84-22.84c2.97-7.02,13.21-8.74,17.84-13.38,4.63-4.63,6.36-14.87,13.38-17.84,1.43-.6,2.93-.84,4.47-.84,6.04,0,12.73,3.69,18.36,3.69s12.33-3.69,18.37-3.69M77.27,0C73.62,0,70.07,1.04,66.64,2.05c-2.85.84-5.55,1.63-7.74,1.63s-4.89-.79-7.74-1.63C47.73,1.04,44.18,0,40.54,0c-2.18,0-4.21.39-6.03,1.16-5.62,2.38-8.37,7.74-10.79,12.47-1.28,2.5-2.49,4.86-3.86,6.22-1.37,1.37-3.73,2.58-6.22,3.86-4.73,2.43-10.1,5.18-12.47,10.79-2.36,5.59-.63,11.47.89,16.66.84,2.85,1.63,5.55,1.63,7.74s-.79,4.89-1.63,7.74c-1.53,5.19-3.26,11.07-.89,16.66,2.38,5.62,7.74,8.37,12.47,10.79,2.5,1.28,4.86,2.49,6.22,3.86,1.37,1.37,2.58,3.73,3.86,6.22,2.43,4.73,5.18,10.1,10.79,12.47,1.82.77,3.85,1.16,6.03,1.16,3.65,0,7.2-1.04,10.63-2.05,2.85-.84,5.55-1.63,7.74-1.63s4.89.79,7.74,1.63c3.43,1.01,6.98,2.05,10.63,2.05,2.21,0,4.18-.38,6.03-1.16,5.62-2.38,8.37-7.74,10.79-12.47,1.28-2.5,2.49-4.86,3.86-6.22,1.37-1.37,3.73-2.58,6.22-3.86,4.73-2.43,10.1-5.18,12.47-10.79,2.36-5.59.63-11.47-.89-16.66-.84-2.85-1.63-5.55-1.63-7.74s.79-4.89,1.63-7.74c1.53-5.19,3.26-11.07.89-16.66-2.38-5.62-7.74-8.37-12.47-10.79-2.5-1.28-4.86-2.49-6.22-3.86-1.37-1.37-2.58-3.73-3.86-6.22-2.43-4.73-5.18-10.1-10.79-12.47C81.48.39,79.45,0,77.27,0h0Z"/>
    </g>
  </g>
</svg>