<?xml version="1.0" encoding="UTF-8"?>
<svg id="Ebene_2" data-name="Ebene 2" xmlns="http://www.w3.org/2000/svg" viewBox="0 0 188.29 178.71">
  <defs>
    <style>
      /* Energetic yellow color scheme */
      .cls-1 {
        fill: #fff59a; /* pale yellow */
      }

      .cls-2 {
        fill: #ffcf00; /* energetic gold */
      }
    </style>
  </defs>
  <g id="Ebene_1-2" data-name="Ebene 1">
    <g>
      <g>
        <path class="cls-2" d="M51.77,105.2c2.52,5.83,5.16,11.56,7.93,17.2,10.49,5.69,22.62,8.86,34.58,8.79,11.97.05,24.08-3.09,34.58-8.79,2.76-5.64,5.42-11.38,7.94-17.21-7.12,3.34-17.86,7.03-29.37,8.66-1.75,16.11-24.54,16.11-26.31.02-11.5-1.62-22.24-5.31-29.36-8.66Z"/>
        <path class="cls-2" d="M94.28,122c5.07,0,9.2-4.13,9.2-9.2-.51-12.21-17.9-12.21-18.41,0,0,5.07,4.13,9.2,9.2,9.2Z"/>
        <path class="cls-2" d="M28.48,31.94c4.87,23.04,11.87,45.72,20.86,67.49,5.33,3.1,17.97,8.37,32.08,10.42,3.28-13.6,22.44-13.6,25.73-.02,14.1-2.06,26.75-7.32,32.09-10.41,9.54-23.08,16.83-47.28,21.7-71.78l-33.16,41.06-33.49-28.4-33.49,28.4L27.54,27.38c.3,1.5.62,3.03.94,4.56Z"/>
        <path class="cls-2" d="M94.28,35.08l32.95,27.94,28.37-35.14c-9.37,6.75-18.74,13.49-28.11,20.24-11.07-13.9-22.15-27.8-33.22-41.7-11.07,13.9-22.15,27.8-33.22,41.7-9.39-6.82-18.78-13.64-28.17-20.47l28.44,35.36,32.95-27.94Z"/>
        <path class="cls-2" d="M179.93,117.5c9.63-16.31,13.28-33.92-1.97-49.24-3.89,2.42-11.88,7.39-15.76,9.81-1.15-2.93-4.69-11.96-5.89-15.03,0,0,0,0,0,0,4.77-15.86,8.31-32.38,11.21-48.67-10.75,7.74-28.37,20.43-39.26,28.28L97.41,3.93l-3.13-3.93c-9.05,11.36-24.84,31.19-33.96,42.63-9.68-7.03-29.73-21.6-39.39-28.62,2.89,16.16,6.39,32.56,11.1,48.3l-5.78,15.68c-3.56-2.21-12.18-7.58-15.73-9.78-15.01,15.58-12.18,34.59-2.66,49.32-3.93.31-4.71,1.77-6.45,3.82,2.29,17.7,15.96,29.57,26.88,34.26,1.93.59,3.71.86,4.88,1.01,4.3.24,9.32,3.96,12.05,6.64,3.01,2.72,6.11,5.54,11.6,6.63,1.92.41,3.75.61,5.59.61,6.82-.02,13.13-3.58,18.33,2.38,3.72,3.92,8.44,5.94,13.59,5.83,6.81.17,10.76-3.25,13.3-5.68,1.81-1.68,3.02-2.8,5.26-3.33,4.77-1.01,8.13.86,13.15.81,1.83,0,3.7-.2,5.72-.62,5.46-1.07,8.58-3.89,11.59-6.62,2.17-1.96,4.4-3.99,7.77-5.48,3.75-1.63,4.91-.86,8.94-2.11,6.24-1.8,31.02-15.46,26.43-35.81-1.97-1.19-4.22-2.36-6.54-2.37ZM165.93,109.1c-1.12,6.32-3.46,12.42-6.94,18.12-.61,1-5.88,9.63-6.63,10.86l10.21-3.25.61-.19c-2.62,2.25-6.39,4.82-10.73,6.54-5.75,2.35-8.82,1.25-14.97,5.34-3.26,2.22-4.85,4.23-5.97,5.68-2.55,3.68-5.36,3.12-9.09,1.06-2.63-1.37-6.57-3.11-10.47-2.69-2.28.2-3.42,1.22-4.34,2.04-.65.58-1.75,1.56-4.35,3.4-3.26,2.3-7.71,5.45-9.04,5.65-2.43.01-5.63-2.81-8.22-5.09-2.85-2.36-4.02-4.79-8.28-5.8-4.09-.75-6.81.09-11.49,2.46-3.66,2.03-6.64,2.68-9.17-1.04-1.13-1.45-2.68-3.43-5.94-5.66-3.68-2.51-6.28-3.04-9.15-3.66-5.6-.74-12.25-4.75-16.47-8.21l.49.16,10.21,3.24c-.78-1.27-6.01-9.84-6.63-10.85-3.48-5.7-5.81-11.79-6.94-18.11-1.45-8.15-1.02-11.51-.6-12.82,4.9,3.37,11.8,8.12,16.7,11.49.71-5.21,1.79-12.92,2.78-17.29,0,0,0,0,0,0,4.48,11.82,9.53,23.44,15.11,34.74,6.87,4.34,22.39,10.24,37.66,9.98,15.24.25,30.74-5.63,37.65-9.97,5.59-11.29,10.64-22.92,15.12-34.74,0,0,0,0,0,0,.65,3.04,1.28,6.62,1.88,10.88l.89,6.41c4.91-3.38,11.8-8.12,16.7-11.49.42,1.32.85,4.68-.6,12.82Z"/>
      </g>
      <path class="cls-1" d="M186.47,119.87c-1.97-1.19-4.22-2.36-6.54-2.37,9.63-16.31,13.28-33.92-1.97-49.24-3.89,2.42-11.88,7.39-15.76,9.81-1.15-2.93-4.69-11.96-5.89-15.03,0,0,0,0,0,0,4.77-15.86,8.31-32.38,11.21-48.67-10.75,7.74-28.37,20.43-39.26,28.28L97.41,3.93l-3.13-3.93c-9.05,11.36-24.84,31.19-33.96,42.63-9.68-7.03-29.73-21.6-39.39-28.62,2.89,16.16,6.39,32.56,11.1,48.3l-5.78,15.68c-3.56-2.21-12.18-7.58-15.73-9.78-15.01,15.58-12.18,34.59-2.66,49.32-3.93.31-4.71,1.77-6.45,3.82,2.29,17.7,15.96,29.57,26.88,34.26,1.93.59,3.71.86,4.88,1.01,4.3.24,9.32,3.96,12.05,6.64,3.01,2.72,6.11,5.54,11.6,6.63,1.92.41,3.75.61,5.59.61,6.82-.02,13.13-3.58,18.33,2.38,3.72,3.92,8.44,5.94,13.59,5.83,6.81.17,10.76-3.25,13.3-5.68,1.81-1.68,3.02-2.8,5.26-3.33,4.77-1.01,8.13.86,13.15.81,1.83,0,3.7-.2,5.72-.62,5.46-1.07,8.58-3.89,11.59-6.62,2.17-1.96,4.4-3.99,7.77-5.48,3.75-1.63,4.91-.86,8.94-2.11,6.24-1.8,31.02-15.46,26.43-35.81ZM61.06,48.12c11.07-13.9,22.15-27.8,33.22-41.7,11.07,13.9,22.15,27.8,33.22,41.7,9.37-6.75,18.74-13.49,28.11-20.24l-28.37,35.14-32.95-27.94-32.95,27.94-28.44-35.36c9.39,6.82,18.78,13.64,28.17,20.47ZM27.54,27.38l33.25,41.34,33.49-28.4,33.49,28.4,33.16-41.06c-4.07,21.49-12.61,50.27-21.7,71.78-5.34,3.09-17.98,8.35-32.09,10.41-3.29-13.59-22.46-13.57-25.73.02-14.1-2.05-26.74-7.32-32.08-10.42-9.13-21.6-17.7-50.48-21.8-72.05ZM148.93,101.36l.89,6.41c4.91-3.38,11.8-8.12,16.7-11.49.42,1.32.85,4.68-.6,12.82-1.12,6.32-3.46,12.42-6.94,18.12-.61,1-5.88,9.63-6.63,10.86l10.21-3.25.61-.19c-2.62,2.25-6.39,4.82-10.73,6.54-5.75,2.35-8.82,1.25-14.97,5.34-3.26,2.22-4.85,4.23-5.97,5.68-2.55,3.68-5.36,3.12-9.09,1.06-2.63-1.37-6.57-3.11-10.47-2.69-2.28.2-3.42,1.22-4.34,2.04-.65.58-1.75,1.56-4.35,3.4-3.26,2.3-7.71,5.45-9.04,5.65-2.43.01-5.63-2.81-8.22-5.09-2.85-2.36-4.02-4.79-8.28-5.8-4.09-.75-6.81.09-11.49,2.46-3.66,2.03-6.64,2.68-9.17-1.04-1.13-1.45-2.68-3.43-5.94-5.66-3.68-2.51-6.28-3.04-9.15-3.66-5.6-.74-12.25-4.75-16.47-8.21l.49.16,10.21,3.24c-.78-1.27-6.01-9.84-6.63-10.85-3.48-5.7-5.81-11.79-6.94-18.11-1.45-8.15-1.02-11.51-.6-12.82,4.9,3.37,11.8,8.12,16.7,11.49.71-5.21,1.79-12.92,2.78-17.29,0,0,0,0,0,0,4.48,11.82,9.53,23.44,15.11,34.74,6.87,4.34,22.39,10.24,37.66,9.98,15.24.25,30.74-5.63,37.65-9.97,5.59-11.29,10.64-22.92,15.12-34.74,0,0,0,0,0,0,.65,3.04,1.28,6.62,1.88,10.88ZM94.28,126c6.93,0,12.62-5.36,13.15-12.16,11.51-1.63,22.25-5.32,29.37-8.66-2.63,6.09-5.29,11.83-7.94,17.21-5.03,3.12-20.67,9.22-34.58,8.79-13.9.43-29.58-5.67-34.58-8.79-2.64-5.37-5.3-11.11-7.93-17.2,7.12,3.35,17.85,7.04,29.36,8.66.55,6.78,6.23,12.14,13.15,12.14ZM85.08,112.8c0-5.07,4.13-9.2,9.2-9.2,12.21.51,12.21,17.9,0,18.41-5.08,0-9.2-4.13-9.2-9.2ZM182.94,125.74c-.67,16.29-22.36,25.61-24.03,26.1-4.08,1.21-5.19.42-9.42,2.29-8.15,3.37-10.03,10-18.55,11.84-3.41.78-7,.62-10.1-.04-2.76-.57-5.81-.77-8.77-.16-7.81,1.91-8.4,9.23-17.76,8.92-4.05.11-7.79-1.52-10.74-4.65-1.95-1.84-3.79-3.59-7.07-4.26-1.26-.27-2.47-.4-3.69-.4-3.72.02-6.54,1.13-10.4,1.12-1.57,0-3.14-.17-4.79-.53-4.42-.87-6.87-3.09-9.72-5.67-2.29-2.08-4.88-4.43-8.84-6.17-4.2-1.86-5.32-1.08-9.36-2.27-8.14-3.37-21.6-13.84-24.01-29.38,2.19-2.37,8.41.13,11.95,1.25-5.69-5.57-23.61-30.39-6.3-50.3l16.67,11.36c1.98-5.38,3.96-10.76,5.95-16.13,1.57,5.09,3.28,10.11,5.09,15.13-1.23,4.3-2.37,9.86-3.38,17.01-4.45-3.06-8.9-6.13-13.35-9.19-7.07.22-4.25,14.12-3.62,18.19,1.29,7.45,4.3,14.67,8.51,21.21-2.86-.81-10.84-4.04-9.54.55,1.5,4.49,13.97,13.91,23.58,15.25,2.6.56,4.65.99,7.62,3.02,2.75,1.88,3.97,3.44,5.05,4.82,3.61,5.16,8.92,5.19,14.15,2.13,5.22-2.75,9.17-3.58,12.92.56,3.62,3.35,8.37,8.25,13.23,8.3,2.29,0,5.54-2.29,11.36-6.39,2.79-1.97,3.99-3.04,4.71-3.69.75-.67,1.07-.95,2.02-1.03,5.54-.62,9.61,4.26,14.83,4.38,2.97.11,6.14-2.08,7.54-4.27,1.08-1.38,2.3-2.94,5.06-4.82,3.21-2.13,5.61-2.63,8.15-3.16,1.82-.38,3.69-.77,6.1-1.79,12.45-4.71,27.31-21.07,7.39-13.86,4.21-6.54,7.23-13.77,8.51-21.22.62-4.06,3.45-17.97-3.62-18.18l-13.36,9.19c-1-7.15-2.14-12.71-3.37-17.02,1.74-4.84,3.39-9.69,4.91-14.59,2.04,5.2,4.08,10.4,6.12,15.6l16.67-11.36c14.12,15.52,4.36,36.21-6.3,50.3,1.86-.63,4.46-1.52,6.16-1.85,2.45-.62,4.05-.46,5.7.49.18,1.29.2,2.42.16,3.36Z"/>
    </g>
  </g>
</svg>